<svg xmlns="http://www.w3.org/2000/svg" viewBox="0 0 512 512">
  <defs>
    <mask id="authors-spacing">
      <rect width="512" height="512" fill="white"/>

      <!-- Прозрачный зазор вокруг центрального автора -->
      <circle cx="256" cy="198" r="89" fill="black"/>
      <path
        d="M238 278H274C338 278 390 328 390 392V486C350 502 305 510 256 510C207 510 162 502 122 486V392C122 328 174 278 238 278Z"
        fill="black"
        stroke="black"
        stroke-width="24"
        stroke-linejoin="round"
      />
    </mask>
  </defs>

  <!-- Два автора на заднем плане -->
  <g fill="#000000" mask="url(#authors-spacing)">
    <circle cx="130" cy="126" r="78"/>
    <path d="M0 384V310C0 247 51 196 114 196H162C225 196 276 247 276 310V384C232 402 185 410 138 410C91 410 44 401 0 384Z"/>

    <circle cx="382" cy="126" r="78"/>
    <path d="M236 310C236 247 287 196 350 196H398C461 196 512 247 512 310V384C468 401 421 410 374 410C327 410 280 402 236 384V310Z"/>
  </g>

  <!-- Центральный автор -->
  <circle cx="256" cy="198" r="75" fill="#000000"/>
  <path
    d="M238 278H274C338 278 390 328 390 392V486C350 502 305 510 256 510C207 510 162 502 122 486V392C122 328 174 278 238 278Z"
    fill="#000000"
  />
</svg>
