<svg width="30" height="30" viewBox="0 0 30 30" fill="none" xmlns="http://www.w3.org/2000/svg">
<g clip-path="url(#clip0_190_170)">
<path d="M0.301241 14.1865C0.301006 13.8337 0.43829 13.5021 0.687664 13.2528C1.19953 12.741 2.03437 12.7389 2.54882 13.248C2.8303 13.5209 7.63677 18.3131 8.05735 18.7314C8.46885 19.1411 9.13482 19.1399 9.54474 18.7285C9.95472 18.317 9.95343 17.6511 9.54193 17.2411C6.99933 14.7064 2.94157 10.6651 0.3971 8.13066C0.146496 7.88128 0.00850868 7.5497 0.0080986 7.19668C0.00762939 6.84366 0.144915 6.51172 0.394581 6.26206L0.430908 6.22573C0.944126 5.71257 1.78019 5.71163 2.2947 6.22356C3.95875 7.87859 8.78994 12.6911 10.5101 14.4046C10.9216 14.8145 11.5874 14.8132 11.9973 14.4018C12.4073 13.9904 12.4062 13.3245 11.9949 12.9146C9.36808 10.294 5.75809 6.70368 3.14014 4.09475C2.88984 3.84555 2.75185 3.51397 2.75144 3.16101C2.75103 2.80804 2.88831 2.47611 3.13786 2.22656L3.18251 2.18191C3.43176 1.93272 3.76311 1.79543 4.11555 1.79543C4.46799 1.79543 4.79927 1.93266 5.04847 2.18191L13.8818 11.0151C14.2925 11.4258 14.9585 11.4258 15.3692 11.0151C15.7799 10.6044 15.7799 9.93844 15.3692 9.5277L8.12186 2.28041C7.87267 2.03115 7.73544 1.69981 7.73544 1.34737C7.73544 0.994931 7.87267 0.663645 8.12186 0.414447L8.15133 0.384916C8.66491 -0.128537 9.50203 -0.128712 10.0165 0.385854L21.8104 12.1799C22.1437 12.5132 22.658 12.584 23.069 12.3534C23.4799 12.1227 23.6873 11.6468 23.5763 11.1887L21.5591 2.85861C21.3625 2.04668 21.8061 1.21876 22.5911 0.932764C22.7763 0.865323 22.9665 0.831749 23.1555 0.831749C23.424 0.831749 23.69 0.899307 23.9359 1.03319C24.3549 1.2613 24.6441 1.64303 24.7502 2.10809L24.906 2.7907C25.6917 6.23259 26.987 9.68449 28.7559 13.0505C29.8134 15.0626 30.216 17.417 29.8895 19.6799C29.5521 22.0186 28.4878 24.1409 26.8116 25.817C24.7543 27.8744 22.0194 29.0072 19.1102 29.0072H19.1028C16.1909 29.0052 13.4546 27.8686 11.3982 25.8068L8.77717 23.1787L0.688131 15.1192C0.438993 14.8706 0.301416 14.5391 0.301241 14.1865Z" fill="black"/>
<path d="M2.85554 22.8604C2.66452 22.4142 2.87142 21.8975 3.31761 21.7066C3.76386 21.5154 4.28048 21.7224 4.47149 22.1686C4.76634 22.8574 5.18716 23.4779 5.72224 24.013C6.37597 24.6667 7.14841 25.1452 8.01817 25.4353C8.47866 25.5889 8.72745 26.0866 8.57388 26.5472C8.45106 26.9154 8.10817 27.1482 7.7402 27.1482C7.64804 27.1482 7.55429 27.1336 7.462 27.1029C6.33114 26.7257 5.32755 26.1043 4.47923 25.2559C3.78524 24.5618 3.23891 23.7558 2.85554 22.8604Z" fill="black"/>
<path d="M0.532859 23.3453C0.97905 23.154 1.49573 23.3606 1.68698 23.8067C2.09766 24.7647 2.68325 25.6278 3.42745 26.372C4.293 27.2375 5.31112 27.8841 6.45346 28.2936C6.91038 28.4574 7.14803 28.9606 6.98421 29.4176C6.85553 29.7766 6.51739 30.0001 6.1568 30.0001C6.05837 30.0001 5.95823 29.9835 5.8602 29.9483C4.47165 29.4505 3.23497 28.6654 2.1845 27.6149C1.28145 26.7119 0.570534 25.6637 0.0713739 24.4993C-0.119935 24.0532 0.0867257 23.5365 0.532859 23.3453Z" fill="black"/>
</g>
<defs>
<clipPath id="clip0_190_170">
<rect width="30" height="30" fill="white" transform="matrix(-1 0 0 1 30 0)"/>
</clipPath>
</defs>
</svg>
